<?xml version="1.0" encoding="UTF-8" standalone="no"?>
<!-- Generator: Adobe Illustrator 19.0.0, SVG Export Plug-In . SVG Version: 6.00 Build 0)  -->

<svg
   xmlns:dc="http://purl.org/dc/elements/1.1/"
   xmlns:cc="http://creativecommons.org/ns#"
   xmlns:rdf="http://www.w3.org/1999/02/22-rdf-syntax-ns#"
   xmlns:svg="http://www.w3.org/2000/svg"
   xmlns="http://www.w3.org/2000/svg"
   xmlns:sodipodi="http://sodipodi.sourceforge.net/DTD/sodipodi-0.dtd"
   xmlns:inkscape="http://www.inkscape.org/namespaces/inkscape"
   version="1.1"
   id="Layer_1"
   x="0px"
   y="0px"
   viewBox="0 0 488.9 488.9"
   style="enable-background:new 0 0 488.9 488.9;"
   xml:space="preserve"
   sodipodi:docname="print.svg"
   inkscape:version="0.92.5 (2060ec1f9f, 2020-04-08)"><metadata
   id="metadata55"><rdf:RDF><cc:Work
       rdf:about=""><dc:format>image/svg+xml</dc:format><dc:type
         rdf:resource="http://purl.org/dc/dcmitype/StillImage" /><dc:title></dc:title></cc:Work></rdf:RDF></metadata><defs
   id="defs53" /><sodipodi:namedview
   pagecolor="#ffffff"
   bordercolor="#666666"
   borderopacity="1"
   objecttolerance="10"
   gridtolerance="10"
   guidetolerance="10"
   inkscape:pageopacity="0"
   inkscape:pageshadow="2"
   inkscape:window-width="1548"
   inkscape:window-height="836"
   id="namedview51"
   showgrid="false"
   inkscape:zoom="0.48271631"
   inkscape:cx="244.45"
   inkscape:cy="244.45"
   inkscape:window-x="52"
   inkscape:window-y="27"
   inkscape:window-maximized="1"
   inkscape:current-layer="Layer_1" />
<g
   id="g18">
	<g
   id="g16">
		<path
   style="fill:#A7A9AC;"
   d="M108.05,130.2V25.7c0-9.2,7.4-16.6,16.6-16.6h239.4c9.2,0,16.6,7.4,16.6,16.6v104.6"
   id="path2" />
		<path
   style="fill:#A7A9AC;"
   d="M364.15,479.7h-239.4c-9.2,0-16.6-7.4-16.6-16.6V252h272.7v211.2    C380.75,472.3,373.35,479.7,364.15,479.7z"
   id="path4" />
		<path
   d="M48.55,382.8h50.5v80.4c0,14.2,11.5,25.7,25.7,25.7h239.4c14.2,0,25.7-11.5,25.7-25.7v-80.4h50.5    c22.3,0,40.4-18.1,40.4-40.4V161.5c0-22.3-18.1-40.4-40.4-40.4h-50.6V25.7c0-14.2-11.5-25.7-25.7-25.7h-239.4    c-14.2,0-25.7,11.5-25.7,25.7v95.5h-50.4c-22.3,0-40.4,18.1-40.4,40.4v180.8C8.15,364.7,26.25,382.8,48.55,382.8z M371.75,463.1    c0,4.2-3.4,7.5-7.5,7.5h-239.5c-4.2,0-7.5-3.4-7.5-7.5V261h254.5V463.1z M117.15,25.7c0-4.2,3.4-7.5,7.5-7.5h239.4    c4.2,0,7.5,3.4,7.5,7.5v95.5h-254.4C117.15,121.2,117.15,25.7,117.15,25.7z M26.35,161.5c0-12.3,10-22.2,22.2-22.2h391.8    c12.3,0,22.2,10,22.2,22.2v180.9c0,12.3-10,22.2-22.2,22.2h-50.5V252c0-5-4.1-9.1-9.1-9.1h-272.6c-5,0-9.1,4.1-9.1,9.1v112.7    h-50.5c-12.3,0-22.2-10-22.2-22.2C26.35,342.5,26.35,161.5,26.35,161.5z"
   id="path6" />
		<path
   d="M77.75,199.9c2.4,0,4.7-1,6.4-2.7c1.7-1.7,2.6-4,2.6-6.4s-1-4.7-2.6-6.4c-1.7-1.7-4-2.7-6.4-2.7s-4.7,1-6.4,2.7    c-1.7,1.7-2.7,4-2.7,6.4s1,4.7,2.7,6.4C73.05,198.9,75.35,199.9,77.75,199.9z"
   id="path8" />
		<path
   d="M314.65,356.8h-140.4c-5,0-9.1,4.1-9.1,9.1s4.1,9.1,9.1,9.1h140.5c5,0,9.1-4.1,9.1-9.1S319.65,356.8,314.65,356.8z"
   id="path10" />
		<path
   d="M314.65,413h-140.4c-5,0-9.1,4.1-9.1,9.1s4.1,9.1,9.1,9.1h140.5c5,0,9.1-4.1,9.1-9.1C323.75,417,319.65,413,314.65,413z"
   id="path12" />
		<path
   d="M314.65,300.6h-140.4c-5,0-9.1,4.1-9.1,9.1s4.1,9.1,9.1,9.1h140.5c5,0,9.1-4.1,9.1-9.1S319.65,300.6,314.65,300.6z"
   id="path14" />
	</g>
</g>
<g
   id="g20">
</g>
<g
   id="g22">
</g>
<g
   id="g24">
</g>
<g
   id="g26">
</g>
<g
   id="g28">
</g>
<g
   id="g30">
</g>
<g
   id="g32">
</g>
<g
   id="g34">
</g>
<g
   id="g36">
</g>
<g
   id="g38">
</g>
<g
   id="g40">
</g>
<g
   id="g42">
</g>
<g
   id="g44">
</g>
<g
   id="g46">
</g>
<g
   id="g48">
</g>
</svg>